<svg xmlns="http://www.w3.org/2000/svg" version="1.1" xmlns:xlink="http://www.w3.org/1999/xlink" xmlns:svgjs="http://svgjs.dev/svgjs" width="1500" height="1500" viewBox="0 0 1500 1500"><rect width="1500" height="1500" fill="#ffffff"></rect><g transform="matrix(0.6666666666666666,0,0,0.6666666666666666,249.39393939393932,581.2693635293601)"><svg viewBox="0 0 396 134" data-background-color="#ffffff" preserveAspectRatio="xMidYMid meet" height="507" width="1500" xmlns="http://www.w3.org/2000/svg" xmlns:xlink="http://www.w3.org/1999/xlink"><g id="tight-bounds" transform="matrix(1,0,0,1,0.24000000000003752,-0.10678909152144911)"><svg viewBox="0 0 395.5199999999999 134.2135781830429" height="134.2135781830429" width="395.5199999999999"><g><svg viewBox="0 0 634.2913893096243 215.23694622253785" height="134.2135781830429" width="395.5199999999999"><g transform="matrix(1,0,0,1,0,29.74692961541588)"><svg viewBox="0 0 395.52 155.7430869917061" height="155.7430869917061" width="395.52"><g id="textblocktransform"><svg viewBox="0 0 395.52 155.7430869917061" height="155.7430869917061" width="395.52" id="textblock"><g><svg viewBox="0 0 395.52 99.6901128750338" height="99.6901128750338" width="395.52"><g transform="matrix(1,0,0,1,0,0)"><svg width="395.52" viewBox="4.5 -36.080434022211996 183.9925 46.384687424976995" height="99.6901128750338" data-palette-color="#f2b601"><path d="M16.65 0.1L16.65 0.1Q10.15 0.2 7.4 0.05L7.4 0.05Q6.45 0 5.75-0.68 5.05-1.35 5-2.35L5-2.35Q4.95-2.6 4.95-2.8L4.95-2.8Q4.9-5.65 4.7-16.25 4.5-26.85 4.5-33.55L4.5-33.55Q4.5-34.6 5.23-35.33 5.95-36.05 7-36.05 8.05-36.05 8.78-35.33 9.5-34.6 9.5-33.55L9.5-33.55Q9.5-28.5 9.58-23.85 9.65-19.2 9.78-13.63 9.9-8.05 9.9-4.9L9.9-4.9Q12.5-4.85 17.88-4.95 23.25-5.05 26.05-5L26.05-5Q27.1-5 27.8-4.25 28.5-3.5 28.5-2.45 28.5-1.4 27.75-0.7 27 0 25.95 0L25.95 0Q23.25-0.05 16.65 0.1L16.65 0.1ZM42.85 0.25L42.85 0.25Q39.15 0 36.4-1.25 33.65-2.5 32.2-4.4 30.75-6.3 30.1-7.9 29.45-9.5 29.3-11.08 29.15-12.65 29.45-15.15L29.45-15.15Q29.8-17.25 30.92-19.3 32.05-21.35 33.92-22.98 35.8-24.6 38.45-25.48 41.1-26.35 44.1-26L44.1-26Q47-25.65 49.05-24.43 51.1-23.2 52.55-21.3L52.55-21.3Q53.8-19.7 54.07-18.9 54.35-18.1 54.57-17.4 54.8-16.7 54.95-16.2 55.1-15.7 55.22-15.18 55.35-14.65 55.4-13.95L55.4-13.95Q55.45-13 55.05-12.2 54.65-11.4 53.85-10.95L53.85-10.95Q53.2-10.7 52.45-10.7L52.45-10.7 43.9-10.55Q34.9-10.5 34.9-10.35L34.9-10.35 34.75-10.35Q35.4-7.8 37.47-6.35 39.55-4.9 43.15-4.65L43.15-4.65Q45.1-4.55 46.4-4.85L46.4-4.85Q47.85-5.25 48.5-5.58 49.15-5.9 50.1-6.45L50.1-6.45Q51.05-6.8 52-6.35 52.95-5.9 53.3-4.95 53.65-4 53.22-3.1 52.8-2.2 51.9-1.7L51.9-1.7Q51.1-1.25 50.25-0.93 49.4-0.6 47.75-0.15 46.1 0.3 42.85 0.25L42.85 0.25ZM34.85-15.25L34.85-15.25Q37.75-15.4 49.9-15.55L49.9-15.55Q49.45-17.05 48.45-18.4L48.45-18.4Q46.45-20.7 43.5-21.05L43.5-21.05Q40.4-21.45 38.05-19.73 35.7-18 34.85-15.25L34.85-15.25ZM71.5 10.25L71.5 10.25Q68.59 10.5 65.92 9.6 63.25 8.7 61.5 6.45L61.5 6.45Q60.85 5.6 60.42 4.35 60 3.1 60.5 2.18 61 1.25 61.97 0.95 62.95 0.65 63.87 1.15 64.8 1.65 65.09 2.6L65.09 2.6Q65.2 3 65.34 3.68 65.5 4.35 66.45 5L66.45 5Q68.7 5.8 71.4 5.7L71.4 5.7Q73.84 5.6 75.15 4.67 76.45 3.75 76.8 2.55L76.8 2.55Q77.3 0.85 77.59-2.85L77.59-2.85Q75.7-0.85 71.84-0.45L71.84-0.45Q68.55-0.3 65.92-1.38 63.3-2.45 61.77-4.45 60.25-6.45 59.55-8.9L59.55-8.9Q58.85-11.25 59.05-14.8L59.05-14.8Q59.45-20.3 63.35-23.65L63.35-23.65Q67.7-27.1 73.84-26.1L73.84-26.1Q76.09-25.35 77.4-24.3L77.4-24.3Q77.45-26.3 79.3-26.75L79.3-26.75Q80.5-26.85 81.22-26.2 81.95-25.55 82.09-24.55L82.09-24.55Q82.65-18.45 82.75-9.65L82.75-9.65Q82.8-4.65 82.45-1.3L82.45-1.3Q82.05 3.7 80.09 6.18 78.15 8.65 76.2 9.33 74.25 10 71.5 10.25L71.5 10.25ZM71.5-5.55L71.5-5.55Q73.34-5.5 74.34-6L74.34-6Q77.25-6.9 77.7-10.75L77.7-10.75Q77.95-13.7 77.45-16.4L77.45-16.4Q77.09-18.1 75.4-19.35L75.4-19.35Q74.4-20.15 72.84-20.4L72.84-20.4Q68.84-21.1 66.7-19.2L66.7-19.2Q64.65-17.55 64.34-14.35L64.34-14.35Q64.09-10.15 66-7.8L66-7.8Q67.95-5.5 71.5-5.55L71.5-5.55ZM89.04-2.4L89.04-2.4Q88.94-6.15 89.07-13.9 89.19-21.65 89.19-24.05L89.19-24.05Q89.19-25.1 89.92-25.83 90.64-26.55 91.69-26.55 92.74-26.55 93.47-25.83 94.19-25.1 94.19-24.05L94.19-24.05Q94.19-21.65 94.07-13.95 93.94-6.25 94.04-2.5L94.04-2.5Q94.04-1.45 93.34-0.7 92.64 0.05 91.59 0.05 90.54 0.05 89.79-0.65 89.04-1.35 89.04-2.4L89.04-2.4ZM93.69-35.2L93.69-35.2Q94.54-34.35 94.54-33.1 94.54-31.85 93.69-31 92.84-30.15 91.59-30.15 90.34-30.15 89.49-31 88.64-31.85 88.64-33.1 88.64-34.35 89.49-35.2 90.34-36.05 91.62-36.08 92.89-36.1 93.69-35.2L93.69-35.2ZM108.99-0.15L108.99-0.15Q108.69-0.25 107.77-0.45 106.84-0.65 106.17-0.9 105.49-1.15 104.62-1.63 103.74-2.1 103.04-2.93 102.34-3.75 101.84-4.9L101.84-4.9Q101.29-6.25 101.14-10.2L101.14-10.2Q100.99-13.25 101.09-18.05L101.09-18.05Q101.09-18.95 101.14-21.05L101.14-21.05 100.74-21Q99.69-20.9 98.89-21.55 98.09-22.2 97.97-23.23 97.84-24.25 98.49-25.05 99.14-25.85 100.14-26L100.14-26 101.29-26.1Q101.34-28.75 101.44-31.45L101.44-31.45Q101.49-32.5 102.24-33.2 102.99-33.9 104.04-33.85 105.09-33.8 105.79-33.05 106.49-32.3 106.44-31.25L106.44-31.25 106.29-26.5 107.94-26.6Q108.99-26.65 109.77-26 110.54-25.35 110.62-24.3 110.69-23.25 110.04-22.48 109.39-21.7 108.34-21.6L108.34-21.6 106.14-21.5Q106.09-19.1 106.09-18L106.09-18Q105.99-13.3 106.14-10.35L106.14-10.35Q106.24-7.35 106.44-6.9 106.64-6.45 106.74-6.28 106.84-6.1 107.12-5.93 107.39-5.75 107.69-5.7 107.99-5.65 108.82-5.43 109.64-5.2 110.59-4.85L110.59-4.85Q111.54-4.55 112.02-3.63 112.49-2.7 112.17-1.73 111.84-0.75 110.92-0.28 109.99 0.2 108.99-0.15L108.99-0.15ZM121.39 0L121.39 0Q117.69-0.65 116.04-3L116.04-3Q115.24-4.05 114.89-5.8L114.89-5.8 114.69-6.9Q114.59-7.4 114.49-7.7L114.49-7.7Q114.19-8.65 114.69-9.55 115.19-10.45 116.19-10.7 117.19-10.95 118.09-10.5 118.99-10.05 119.29-9.05L119.29-9.05Q119.44-8.5 119.59-7.8L119.59-7.8Q119.64-7.55 119.66-7.33 119.69-7.1 119.84-6.55L119.84-6.55Q119.99-5.9 120.54-5.45L120.54-5.45Q121.14-4.9 122.34-4.75L122.34-4.75Q124.34-4.35 126.64-4.85L126.64-4.85Q128.89-5.35 130.14-6.3L130.14-6.3Q131.04-7.1 130.89-7.95L130.89-7.95Q130.74-9.35 129.14-10.05L129.14-10.05Q128.14-10.5 123.94-11.25L123.94-11.25Q119.59-12.1 117.79-13.45L117.79-13.45Q114.49-15.9 115.64-20.75L115.64-20.75Q116.34-23.55 118.51-24.88 120.69-26.2 123.34-26.35L123.34-26.35Q125.59-26.45 127.91-25.83 130.24-25.2 131.89-24.1L131.89-24.1Q132.44-23.7 133.04-23.15 133.64-22.6 134.21-21.95 134.79-21.3 134.89-21.25L134.89-21.25Q135.64-20.5 135.64-19.53 135.64-18.55 134.91-17.82 134.19-17.1 133.16-17.1 132.14-17.1 131.39-17.8L131.39-17.8Q130.89-18.25 130.39-18.75L130.39-18.75 129.69-19.6Q129.39-19.85 128.99-20.1L128.99-20.1Q128.04-20.7 126.54-21.13 125.04-21.55 123.59-21.5L123.59-21.5Q120.94-21.35 120.54-19.65L120.54-19.65Q120.09-17.85 120.84-17.3L120.84-17.3Q121.74-16.65 124.89-16L124.89-16Q129.54-15.2 131.24-14.45L131.24-14.45Q135.34-12.6 135.89-8.5L135.89-8.5Q136.34-5.15 133.39-2.7L133.39-2.7Q131.14-0.85 127.69-0.15L127.69-0.15Q124.39 0.6 121.39 0L121.39 0ZM145.79 7.55L145.79 7.55Q145.79 8.6 145.04 9.3 144.29 10 143.24 10 142.19 10 141.49 9.25 140.79 8.5 140.79 7.45L140.79 7.45Q140.99-2.4 140.99-24L140.99-24Q140.99-25.05 141.71-25.78 142.44-26.5 143.49-26.5L143.49-26.5Q144.24-26.5 144.86-25.83 145.49-25.15 145.79-24.15L145.79-24.15 146.49-24.6Q149.49-26.4 152.44-26.55 155.39-26.7 157.74-25.25L157.74-25.25Q159.94-24 161.46-21.75 162.99-19.5 163.69-16.85L163.69-16.85Q164.24-14.95 164.29-12.8 164.34-10.65 163.74-8.8 163.14-6.95 161.99-5.15 160.84-3.35 158.76-2 156.69-0.65 153.99-0.15L153.99-0.15Q149.34 0.7 145.94-1.75L145.94-1.75Q145.89 2.9 145.79 7.55L145.79 7.55ZM153.09-5.05L153.09-5.05Q156.89-5.75 158.41-8.68 159.94-11.6 158.89-15.55L158.89-15.55Q157.84-19.45 155.24-20.9L155.24-20.9Q152.59-22.45 149.09-20.3L149.09-20.3Q147.49-19.35 147.24-19.05L147.24-19.05Q147.09-18.9 146.99-18.78 146.89-18.65 146.64-18.2L146.64-18.2 145.99-17.3 145.99-9.1Q146.24-8.85 146.39-8.55L146.39-8.55Q147.79-6.35 149.34-5.5 150.89-4.65 153.09-5.05L153.09-5.05ZM169.03 10.05L169.03 10.05Q167.98 10.15 167.18 9.47 166.38 8.8 166.28 7.78 166.18 6.75 166.86 5.95 167.53 5.15 168.53 5.05L168.53 5.05Q169.03 5 169.73 4.95 170.43 4.9 170.66 4.88 170.88 4.85 171.23 4.78 171.58 4.7 171.78 4.55L171.78 4.55 172.28 4.25Q173.48 3.65 174.43 0.9L174.43 0.9Q174.73 0.05 175.03-0.3L175.03-0.3Q174.68-0.7 174.48-1.25L174.48-1.25Q173.58-5.1 170.78-12.65L170.78-12.65Q168.28-19.3 167.08-23.3L167.08-23.3Q166.78-24.3 167.28-25.2 167.78-26.1 168.78-26.4 169.78-26.7 170.68-26.2 171.58-25.7 171.88-24.7L171.88-24.7Q172.83-21.5 175.48-14.4L175.48-14.4 177.38-9.2Q180.88-19.9 183.78-25.25L183.78-25.25Q184.28-26.15 185.28-26.45 186.28-26.75 187.18-26.25 188.08-25.75 188.38-24.75 188.68-23.75 188.18-22.85L188.18-22.85Q186.88-20.45 185.48-17 184.08-13.55 183.28-11.2 182.48-8.85 181.18-4.65L181.18-4.65Q180.88-3.65 180.78-3.25L180.78-3.25Q180.53-2.6 180.08-0.65L180.08-0.65Q179.53 1.2 179.18 2.35L179.18 2.35Q177.78 6.25 175.38 8.15L175.38 8.15Q174.68 8.7 173.98 9.08 173.28 9.45 172.51 9.63 171.73 9.8 171.28 9.88 170.83 9.95 170.01 9.98 169.18 10 169.03 10.05L169.03 10.05Z" opacity="1" transform="matrix(1,0,0,1,0,0)" fill="#f2b601" class="wordmark-text-0" data-fill-palette-color="primary" id="text-0"></path></svg></g></svg></g><g transform="matrix(1,0,0,1,163.310208,123.22455596212029)"><svg viewBox="0 0 232.209792 32.518531029585795" height="32.518531029585795" width="232.209792"><g transform="matrix(1,0,0,1,0,0)"><svg width="232.209792" viewBox="1.25 -35 253.47 35.5" height="32.518531029585795" data-palette-color="#f2b601"><path d="M9.9-30.6L1.25-30.6 1.25-35 23.25-35 23.25-30.6 14.6-30.6 14.6 0 9.9 0 9.9-30.6ZM31.15 0L26.75 0 26.75-13.65Q26.75-19.4 28.9-21.6L28.9-21.6Q29.95-22.7 31.45-23.25 32.95-23.8 34.07-23.9 35.2-24 37.15-24L37.15-24 41.55-24 41.55-19.8 36.25-19.8Q35.25-19.8 34.7-19.75 34.15-19.7 33.4-19.4 32.65-19.1 32.1-18.45L32.1-18.45Q31.15-17.25 31.15-13.65L31.15-13.65 31.15 0ZM64.7-24L64.7 0 56.05 0Q50.5 0 48.09-1.65L48.09-1.65Q45.95-3.1 45.37-5.13 44.8-7.15 44.8-10.45L44.8-10.45 44.8-24 49.2-24 49.2-10.5Q49.2-9.6 49.25-8.97 49.3-8.35 49.59-7.38 49.9-6.4 50.45-5.78 51-5.15 52.05-4.67 53.09-4.2 54.59-4.2L54.59-4.2 60.3-4.2 60.3-24 64.7-24ZM72.89-19.8L68.44-19.8 77.39-28.75 77.39-24 84.14-24 84.14-19.8 77.39-19.8 77.39-9.5Q77.39-7.75 77.97-6.6 78.54-5.45 79.64-4.98 80.74-4.5 81.72-4.35 82.69-4.2 84.14-4.2L84.14-4.2 84.14 0Q78.39 0 75.64-2.2 72.89-4.4 72.89-9.5L72.89-9.5 72.89-19.8ZM88.89-35L93.29-35 93.29-24 97.54-24Q103.09-24 105.49-22.35L105.49-22.35Q107.64-20.9 108.22-18.88 108.79-16.85 108.79-13.55L108.79-13.55 108.79 0 104.39 0 104.39-13.5Q104.39-14.4 104.34-15.03 104.29-15.65 103.99-16.63 103.69-17.6 103.14-18.23 102.59-18.85 101.54-19.33 100.49-19.8 98.99-19.8L98.99-19.8 93.29-19.8 93.29 0 88.89 0 88.89-35ZM131.39-26L131.39-26 131.39-19.3 140.69-19.3 140.69-14.9 131.39-14.9 131.39 0 126.69 0 126.69-26.65Q126.69-30.35 129.04-32.6L129.04-32.6Q130.64-34.1 132.64-34.55 134.64-35 137.54-35L137.54-35 142.84-35 142.84-30.6 136.89-30.6Q131.39-30.6 131.39-26ZM153.33-24L153.33 0 148.93 0 148.93-19.8 144.83-19.8 146.83-24 153.33-24ZM148.73-29L148.73-29Q148.08-29.85 148.08-30.85 148.08-31.85 148.73-32.68 149.38-33.5 150.73-33.5 152.08-33.5 152.73-32.68 153.38-31.85 153.38-30.85 153.38-29.85 152.73-29.03 152.08-28.2 150.73-28.2 149.38-28.2 148.73-29ZM160.28 0L160.28-24 168.93-24Q174.48-24 176.88-22.35L176.88-22.35Q179.03-20.9 179.61-18.88 180.18-16.85 180.18-13.55L180.18-13.55 180.18 0 175.78 0 175.78-13.5Q175.78-14.4 175.73-15.03 175.68-15.65 175.38-16.63 175.08-17.6 174.53-18.23 173.98-18.85 172.93-19.33 171.88-19.8 170.38-19.8L170.38-19.8 164.68-19.8 164.68 0 160.28 0ZM204.93-4.2L204.93-35 209.43-35 209.43 0 197.68 0Q192.23 0 188.83-3.48 185.43-6.95 185.43-12.25L185.43-12.25Q185.43-17.45 188.95-20.98 192.48-24.5 197.33-24.5L197.33-24.5Q200.43-24.5 203.13-23L203.13-23 203.13-18.5Q200.63-20.3 197.33-20.3L197.33-20.3Q194.33-20.3 192.25-18.07 190.18-15.85 190.18-12.25L190.18-12.25Q190.18-8.6 192.15-6.4 194.13-4.2 197.68-4.2L197.68-4.2 204.93-4.2ZM227.18-24.5L227.18-24.5Q235.68-24.15 235.68-17.45L235.68-17.45Q235.68-9.1 224.73-9.1L224.73-9.1 222.68-9.1 222.68-12.95 225.08-12.95Q228.43-12.95 229.73-13.98 231.03-15 231.03-17.4L231.03-17.4Q231.03-18.95 229.88-19.73 228.73-20.5 226.93-20.5L226.93-20.5Q223.38-20.5 221.35-18 219.33-15.5 219.33-12L219.33-12Q219.33-8.3 221.5-6 223.68-3.7 227.18-3.7L227.18-3.7Q230.33-3.7 232.33-5.25L232.33-5.25 235.33-2.3Q231.88 0.5 227.18 0.5L227.18 0.5Q221.48 0.5 218.08-2.85 214.68-6.2 214.68-11.5L214.68-11.5Q214.68-17.4 218.03-21.05 221.38-24.7 227.18-24.5ZM244.32 0L239.92 0 239.92-13.65Q239.92-19.4 242.07-21.6L242.07-21.6Q243.12-22.7 244.62-23.25 246.12-23.8 247.25-23.9 248.37-24 250.32-24L250.32-24 254.72-24 254.72-19.8 249.42-19.8Q248.42-19.8 247.87-19.75 247.32-19.7 246.57-19.4 245.82-19.1 245.27-18.45L245.27-18.45Q244.32-17.25 244.32-13.65L244.32-13.65 244.32 0Z" opacity="1" transform="matrix(1,0,0,1,0,0)" fill="#f2b601" class="slogan-text-1" data-fill-palette-color="secondary" id="text-1"></path></svg></g></svg></g></svg></g></svg></g><g transform="matrix(1,0,0,1,419.05444308708644,0)"><svg viewBox="0 0 215.23694622253785 215.23694622253785" height="215.23694622253785" width="215.23694622253785"><g><svg xmlns="http://www.w3.org/2000/svg" xmlns:xlink="http://www.w3.org/1999/xlink" version="1.1" x="0" y="0" viewBox="0 0 24 24" style="enable-background:new 0 0 24 24;" xml:space="preserve" height="215.23694622253785" width="215.23694622253785" class="icon-icon-0" data-fill-palette-color="accent" id="icon-0"><g fill="#f2b601" data-fill-palette-color="accent"><g fill="#f2b601" data-fill-palette-color="accent"><path d="M12 18c-2.464 0-4.653-1.99-5.562-5.002C5.614 12.948 5 11.891 5 10.5 5 9.075 5.645 8 6.5 8c0.047 0 0.117 0.011 0.162 0.024C6.937 8.051 7.103 8.29 7.075 8.565 7.047 8.84 6.771 9.028 6.493 9.006c-0.004 0-0.01-0.001-0.015-0.002C6.337 9.058 6 9.583 6 10.5 6 11.468 6.375 12 6.5 12c0.136-0.084 0.32-0.109 0.467-0.049 0.148 0.061 0.273 0.176 0.312 0.331C7.979 15.104 9.876 17 12 17s4.021-1.896 4.721-4.718c0.039-0.155 0.149-0.282 0.296-0.342 0.148-0.06 0.316-0.046 0.452 0.038C17.633 11.984 18 11.468 18 10.5c0-0.917-0.337-1.442-0.478-1.496-0.005 0.001-0.011 0.001-0.015 0.002-0.272 0.027-0.52-0.173-0.547-0.448-0.027-0.275 0.173-0.52 0.448-0.547C18.399 8.012 19 9.075 19 10.5c0 1.391-0.614 2.448-1.438 2.498C16.653 16.01 14.464 18 12 18z" fill="#f2b601" data-fill-palette-color="accent"></path></g><g fill="#f2b601" data-fill-palette-color="accent"><path d="M12 10c0 0.828-1.395 1.5-2.5 1.5S8 10.828 8 10s-0.396-1.5 2-1.5C12.313 8.5 12 9.172 12 10z" fill="#f2b601" data-fill-palette-color="accent"></path><path d="M9.5 12c-1.252 0-2-0.748-2-2 0-0.096-0.006-0.189-0.012-0.279C7.465 9.36 7.437 8.911 7.781 8.544 8.144 8.158 8.787 8 10 8c1.167 0 1.82 0.163 2.186 0.544 0.356 0.372 0.336 0.837 0.321 1.211C12.503 9.835 12.5 9.917 12.5 10 12.5 11.239 10.753 12 9.5 12zM10 9C8.817 9 8.56 9.175 8.51 9.229 8.462 9.28 8.475 9.472 8.486 9.658 8.493 9.768 8.5 9.883 8.5 10c0 0.691 0.309 1 1 1 0.966 0 2-0.587 2-1 0-0.098 0.004-0.194 0.008-0.287 0.009-0.212 0.018-0.413-0.044-0.477C11.396 9.166 11.117 9 10 9z" fill="#f2b601" data-fill-palette-color="accent"></path></g><g fill="#f2b601" data-fill-palette-color="accent"><path d="M12.014 10c0 0.828 1.381 1.5 2.486 1.5s1.514-0.672 1.514-1.5 0.396-1.5-2-1.5C11.702 8.5 12.014 9.172 12.014 10z" fill="#f2b601" data-fill-palette-color="accent"></path><path d="M14.5 12c-1.247 0-2.986-0.761-2.986-2 0-0.083-0.003-0.165-0.007-0.245-0.016-0.374-0.036-0.839 0.321-1.211C12.194 8.163 12.848 8 14.014 8c1.213 0 1.856 0.158 2.219 0.544 0.344 0.366 0.315 0.815 0.292 1.176-0.005 0.09-0.012 0.184-0.012 0.279C16.514 11.233 15.742 12 14.5 12zM14.014 9c-1.117 0-1.396 0.166-1.464 0.236-0.062 0.064-0.053 0.265-0.044 0.477C12.51 9.806 12.514 9.902 12.514 10c0 0.413 1.027 1 1.986 1 0.701 0 1.014-0.309 1.014-1 0-0.117 0.007-0.232 0.014-0.342 0.012-0.186 0.024-0.378-0.023-0.429C15.454 9.175 15.197 9 14.014 9z" fill="#f2b601" data-fill-palette-color="accent"></path></g><path d="M17.611 4.512C16.832 2.148 15.415 0 14 0c-0.915 0-1.601 0.438-2 0.785C11.601 0.438 10.915 0 10 0 8.585 0 7.168 2.148 6.389 4.512 2.534 5.177 2 5.86 2 6.5 2 8.474 8.286 9 12 9s10-0.526 10-2.5C22 5.86 21.466 5.177 17.611 4.512zM16.884 4.82C16.783 4.941 15.791 6 12 6S7.217 4.941 7.116 4.82C6.939 4.608 6.968 4.292 7.18 4.116c0.208-0.173 0.515-0.149 0.693 0.051C7.913 4.205 8.783 5 12 5c3.28 0 4.12-0.826 4.128-0.834 0.188-0.192 0.5-0.208 0.7-0.03C17.028 4.315 17.056 4.614 16.884 4.82z" fill="#f2b601" data-fill-palette-color="accent"></path><g fill="#f2b601" data-fill-palette-color="accent"><path d="M6.668 21.748c-0.317-0.211-0.541-0.532-0.628-0.904C6 20.676 5.876 20.54 5.712 20.485l-0.187-0.063c-0.22-0.073-0.422-0.198-0.586-0.362l-1.562-1.562c-0.169-0.169-0.434-0.196-0.631-0.063C1.001 19.599 0 21.445 0 23.5 0 23.776 0.224 24 0.5 24h7.895c0.22 0 0.415-0.144 0.479-0.355s-0.018-0.439-0.201-0.561L6.668 21.748z" fill="#f2b601" data-fill-palette-color="accent"></path><path d="M17 20.5v-0.64l1.158-0.386c0.074-0.024 0.141-0.066 0.195-0.121l2.5-2.5c0.123-0.123 0.173-0.3 0.133-0.468-0.04-0.169-0.164-0.305-0.329-0.359l-3-1c-0.21-0.07-0.444 0.007-0.57 0.191L12 22.618l-5.088-7.401c-0.126-0.184-0.358-0.261-0.57-0.191l-3 1c-0.165 0.055-0.289 0.19-0.329 0.359-0.04 0.168 0.011 0.346 0.133 0.468l2.5 2.5c0.055 0.055 0.122 0.096 0.195 0.121L7 19.86v0.64c0 0.167 0.083 0.323 0.223 0.416l4.494 2.996c0.029 0.02 0.06 0.037 0.091 0.05C11.87 23.987 11.935 24 12 24c0.066 0 0.132-0.013 0.194-0.039 0.031-0.013 0.061-0.029 0.088-0.049l4.495-2.996C16.917 20.823 17 20.667 17 20.5z" fill="#f2b601" data-fill-palette-color="accent"></path><path d="M21.253 18.436c-0.197-0.133-0.462-0.106-0.631 0.063l-1.563 1.563c-0.164 0.164-0.366 0.289-0.586 0.362l-0.186 0.062c-0.164 0.055-0.288 0.19-0.328 0.359-0.087 0.372-0.311 0.692-0.628 0.904l-2.004 1.336c-0.183 0.122-0.265 0.35-0.201 0.561S15.385 24 15.605 24H23.5c0.276 0 0.5-0.224 0.5-0.5C24 21.445 22.999 19.599 21.253 18.436z" fill="#f2b601" data-fill-palette-color="accent"></path></g></g></svg></g></svg></g></svg></g><defs></defs></svg><rect width="395.5199999999999" height="134.2135781830429" fill="none" stroke="none" visibility="hidden"></rect></g></svg></g></svg>