<?xml version="1.0" encoding="UTF-8"?>
<!DOCTYPE svg PUBLIC "-//W3C//DTD SVG 1.1//EN" "http://www.w3.org/Graphics/SVG/1.1/DTD/svg11.dtd">
<svg xmlns="http://www.w3.org/2000/svg" version="1.1" width="311px" height="115px" style="shape-rendering:geometricPrecision; text-rendering:geometricPrecision; image-rendering:optimizeQuality; fill-rule:evenodd; clip-rule:evenodd" xmlns:xlink="http://www.w3.org/1999/xlink">
<g><path style="opacity:0.995" fill="#2a2929" d="M 22.5,-0.5 C 62.8333,-0.5 103.167,-0.5 143.5,-0.5C 143.5,0.5 143.5,1.5 143.5,2.5C 130.673,3.33096 117.673,3.83096 104.5,4C 117.673,4.16904 130.673,4.66904 143.5,5.5C 99.8333,5.5 56.1667,5.5 12.5,5.5C 12.6107,4.88258 12.944,4.38258 13.5,4C 18.721,3.7278 23.721,2.7278 28.5,1C 26.2922,0.809116 24.2922,0.309116 22.5,-0.5 Z"/></g>
<g><path style="opacity:0.968" fill="#383637" d="M 143.5,-0.5 C 199.167,-0.5 254.833,-0.5 310.5,-0.5C 310.5,1.16667 310.5,2.83333 310.5,4.5C 308.577,4.20505 306.91,3.37171 305.5,2C 285.714,0.452301 266.048,0.452301 246.5,2C 257.41,2.17855 268.243,2.67855 279,3.5C 287.46,3.28932 295.96,2.95599 304.5,2.5C 304.5,3.5 304.5,4.5 304.5,5.5C 267.167,5.5 229.833,5.5 192.5,5.5C 192.5,3.83333 192.5,2.16667 192.5,0.5C 176.132,0.424402 159.799,1.09107 143.5,2.5C 143.5,1.5 143.5,0.5 143.5,-0.5 Z"/></g>
<g><path style="opacity:0.909" fill="#2d3332" d="M 192.5,5.5 C 176.167,5.5 159.833,5.5 143.5,5.5C 130.673,4.66904 117.673,4.16904 104.5,4C 117.673,3.83096 130.673,3.33096 143.5,2.5C 159.799,1.09107 176.132,0.424402 192.5,0.5C 192.5,2.16667 192.5,3.83333 192.5,5.5 Z"/></g>
<g><path style="opacity:0.833" fill="#3a3933" d="M 310.5,4.5 C 310.5,37.8333 310.5,71.1667 310.5,104.5C 309.833,105.5 309.167,106.5 308.5,107.5C 307.757,73.8418 307.257,40.1752 307,6.5C 306.329,5.74756 305.496,5.41423 304.5,5.5C 304.5,4.5 304.5,3.5 304.5,2.5C 295.96,2.95599 287.46,3.28932 279,3.5C 268.243,2.67855 257.41,2.17855 246.5,2C 266.048,0.452301 285.714,0.452301 305.5,2C 306.91,3.37171 308.577,4.20505 310.5,4.5 Z"/></g>
<g><path style="opacity:0.749" fill="#e7e06c" d="M 264.5,7.5 C 277.833,7.5 291.167,7.5 304.5,7.5C 304.832,17.5222 304.499,27.5222 303.5,37.5C 302.955,27.8619 302.955,18.1953 303.5,8.5C 285.002,9.24887 266.502,9.5822 248,9.5C 242.167,9.33333 236.333,9.16667 230.5,9C 242.007,8.83057 253.341,8.33057 264.5,7.5 Z"/></g>
<g><path style="opacity:0.979" fill="#30291f" d="M -0.5,-0.5 C 7.16667,-0.5 14.8333,-0.5 22.5,-0.5C 24.2922,0.309116 26.2922,0.809116 28.5,1C 23.721,2.7278 18.721,3.7278 13.5,4C 12.944,4.38258 12.6107,4.88258 12.5,5.5C 10.901,5.23219 9.56764,5.56552 8.5,6.5C 7.31213,7.6843 6.14547,7.6843 5,6.5C 4.81295,40.5293 4.31295,74.5293 3.5,108.5C 4.4245,111.131 6.09117,111.798 8.5,110.5C 8.5,111.833 8.5,113.167 8.5,114.5C 5.5,114.5 2.5,114.5 -0.5,114.5C -0.5,76.1667 -0.5,37.8333 -0.5,-0.5 Z"/></g>
<g><path style="opacity:0.749" fill="#6b5124" d="M 23.5,10.5 C 18.1667,10.5 12.8333,10.5 7.5,10.5C 7.5,41.8333 7.5,73.1667 7.5,104.5C 6.5018,73.0044 6.16846,41.3377 6.5,9.5C 12.358,9.1778 18.0247,9.51114 23.5,10.5 Z"/></g>
<g><path style="opacity:0.987" fill="#27231f" d="M 94.5,11.5 C 69.9818,12.1168 45.3151,12.9502 20.5,14C 26.4853,14.7985 32.4853,15.4652 38.5,16C 31.0171,18.3967 23.3504,19.5634 15.5,19.5C 14.43,16.387 14.2634,18.0536 15,24.5C 15.2321,25.7375 15.7321,26.7375 16.5,27.5C 15.6314,29.717 15.298,32.0504 15.5,34.5C 16.1746,46.5396 18.5079,58.2063 22.5,69.5C 18.4035,73.2691 16.0701,77.9358 15.5,83.5C 17.3464,83.2222 18.6798,83.8888 19.5,85.5C 17.3578,87.5703 16.0244,90.0703 15.5,93C 15.6584,96.2879 15.6584,99.7879 15.5,103.5C 14.5,103.5 13.5,103.5 12.5,103.5C 12.8277,77.481 12.3277,51.481 11,25.5C 10.6667,25.1667 10.3333,24.8333 10,24.5C 9.83003,34.342 9.33003,44.0087 8.5,53.5C 8.3547,39.8171 8.68804,26.1505 9.5,12.5C 37.8224,11.6097 66.1557,11.2764 94.5,11.5 Z"/></g>
<g><path style="opacity:0.963" fill="#2f2e36" d="M 104.5,12.5 C 142.835,12.3333 181.168,12.5 219.5,13C 218.5,13.5 217.5,14 216.5,14.5C 187.478,14.4347 158.144,14.4347 128.5,14.5C 112.163,14.6666 95.8299,14.4999 79.5,14C 87.848,13.6221 96.1814,13.1221 104.5,12.5 Z"/></g>
<g><path style="opacity:0.965" fill="#37353a" d="M 278.5,12.5 C 283.5,12.5 288.5,12.5 293.5,12.5C 293.611,13.1174 293.944,13.6174 294.5,14C 292.662,15.3252 291.662,17.1585 291.5,19.5C 292.431,26.7959 292.765,34.1292 292.5,41.5C 291.127,41.6567 289.793,41.49 288.5,41C 289.167,39 289.833,37 290.5,35C 290.391,30.3781 290.391,25.5448 290.5,20.5C 275.5,20.5 260.5,20.5 245.5,20.5C 233.42,20.1881 221.42,20.5214 209.5,21.5C 192.497,21.6666 175.497,21.4999 158.5,21C 148.008,20.9761 137.674,20.3095 127.5,19C 166.499,18.5 205.499,18.3333 244.5,18.5C 254.839,18.6665 265.172,18.4998 275.5,18C 280.679,17.9455 285.679,17.2789 290.5,16C 269.806,15.8864 249.14,15.2197 228.5,14C 229.167,13.6667 229.833,13.3333 230.5,13C 246.497,12.5001 262.497,12.3334 278.5,12.5 Z"/></g>
<g><path style="opacity:0.968" fill="#3b3833" d="M 293.5,12.5 C 295.833,12.5 298.167,12.5 300.5,12.5C 300.5,14.1667 300.5,15.8333 300.5,17.5C 298.804,17.6854 297.471,18.5187 296.5,20C 297.642,26.0844 297.809,32.2511 297,38.5C 295.975,43.1699 294.475,47.5032 292.5,51.5C 294.5,51.5 296.5,51.5 298.5,51.5C 298.719,52.675 298.386,53.675 297.5,54.5C 296.261,54.9424 295.261,55.6091 294.5,56.5C 292.665,55.8777 291.498,54.5444 291,52.5C 290.36,57.9886 289.36,63.322 288,68.5C 287.231,65.9009 287.398,63.4009 288.5,61C 287.207,60.51 285.873,60.3433 284.5,60.5C 287.549,54.5355 290.883,48.7022 294.5,43C 291.338,42.3985 288.338,42.8985 285.5,44.5C 284.334,47.5032 282.667,50.1698 280.5,52.5C 278.345,49.5378 276.179,46.5378 274,43.5C 272.951,44.5171 271.784,44.6838 270.5,44C 271.416,43.7216 272.082,43.2216 272.5,42.5C 271.432,41.5655 270.099,41.2322 268.5,41.5C 269.568,40.5655 270.901,40.2322 272.5,40.5C 272.5,37.8333 272.5,35.1667 272.5,32.5C 269.833,32.5 267.167,32.5 264.5,32.5C 264.813,29.7531 264.48,27.0865 263.5,24.5C 262.914,24.7093 262.414,25.0426 262,25.5C 255.979,23.9927 249.812,22.9927 243.5,22.5C 244.243,21.8182 244.909,21.1515 245.5,20.5C 260.5,20.5 275.5,20.5 290.5,20.5C 290.391,25.5448 290.391,30.3781 290.5,35C 289.833,37 289.167,39 288.5,41C 289.793,41.49 291.127,41.6567 292.5,41.5C 292.765,34.1292 292.431,26.7959 291.5,19.5C 291.662,17.1585 292.662,15.3252 294.5,14C 293.944,13.6174 293.611,13.1174 293.5,12.5 Z"/></g>
<g><path style="opacity:0.965" fill="#343631" d="M 104.5,12.5 C 104.5,12.1667 104.5,11.8333 104.5,11.5C 137.5,11.5 170.5,11.5 203.5,11.5C 228.672,11.169 253.672,11.5023 278.5,12.5C 262.497,12.3334 246.497,12.5001 230.5,13C 229.833,13.3333 229.167,13.6667 228.5,14C 249.14,15.2197 269.806,15.8864 290.5,16C 285.679,17.2789 280.679,17.9455 275.5,18C 265.172,18.4998 254.839,18.6665 244.5,18.5C 204.837,17.3334 165.17,16.3334 125.5,15.5C 126.791,15.7373 127.791,15.404 128.5,14.5C 158.144,14.4347 187.478,14.4347 216.5,14.5C 217.5,14 218.5,13.5 219.5,13C 181.168,12.5 142.835,12.3333 104.5,12.5 Z"/></g>
<g><path style="opacity:0.99" fill="#383639" d="M 300.5,17.5 C 301.159,46.5195 300.492,75.1861 298.5,103.5C 298.5,87.8333 298.5,72.1667 298.5,56.5C 297.167,56.5 295.833,56.5 294.5,56.5C 295.261,55.6091 296.261,54.9424 297.5,54.5C 298.386,53.675 298.719,52.675 298.5,51.5C 296.5,51.5 294.5,51.5 292.5,51.5C 294.475,47.5032 295.975,43.1699 297,38.5C 297.809,32.2511 297.642,26.0844 296.5,20C 297.471,18.5187 298.804,17.6854 300.5,17.5 Z"/></g>
<g><path style="opacity:0.991" fill="#363533" d="M 245.5,20.5 C 244.909,21.1515 244.243,21.8182 243.5,22.5C 249.812,22.9927 255.979,23.9927 262,25.5C 262.414,25.0426 262.914,24.7093 263.5,24.5C 264.48,27.0865 264.813,29.7531 264.5,32.5C 267.167,32.5 269.833,32.5 272.5,32.5C 272.5,35.1667 272.5,37.8333 272.5,40.5C 270.901,40.2322 269.568,40.5655 268.5,41.5C 266.844,42.1465 265.177,42.8131 263.5,43.5C 257.751,41.618 252.085,41.2846 246.5,42.5C 245.167,42.5 243.833,42.5 242.5,42.5C 240.149,44.7442 237.482,45.0775 234.5,43.5C 233.833,43.1667 233.167,42.8333 232.5,42.5C 231.688,41.0069 230.355,40.3402 228.5,40.5C 224.571,41.6424 220.571,42.4757 216.5,43C 215.934,43.9947 215.267,44.828 214.5,45.5C 213.596,44.791 213.263,43.791 213.5,42.5C 205.833,42.5 198.167,42.5 190.5,42.5C 189.5,42.5 188.5,42.5 187.5,42.5C 185.167,42.5 182.833,42.5 180.5,42.5C 180.5,47.5 180.5,52.5 180.5,57.5C 179.061,53.0316 177.894,48.3649 177,43.5C 176.209,44.745 175.709,46.0783 175.5,47.5C 173.992,45.8185 172.992,43.8185 172.5,41.5C 173.708,40.7659 175.041,40.4326 176.5,40.5C 176.5,37.8333 176.5,35.1667 176.5,32.5C 175.5,32.5 174.5,32.5 173.5,32.5C 173.5,29.5 173.5,26.5 173.5,23.5C 185.708,23.8268 197.708,23.1601 209.5,21.5C 221.42,20.5214 233.42,20.1881 245.5,20.5 Z"/></g>
<g><path style="opacity:0.98" fill="#382d19" d="M 36.5,21.5 C 30.2672,24.1414 23.9338,26.8081 17.5,29.5C 16.8302,31.2914 16.1635,32.9581 15.5,34.5C 15.298,32.0504 15.6314,29.717 16.5,27.5C 18.8244,27.3385 20.4911,26.1718 21.5,24C 26.4526,22.8403 31.4526,22.0069 36.5,21.5 Z"/></g>
<g><path style="opacity:0.997" fill="#282523" d="M 43.5,46.5 C 37.8186,45.3116 32.152,45.3116 26.5,46.5C 27.2209,49.8175 27.3876,53.1508 27,56.5C 25.3557,51.923 24.0224,47.2564 23,42.5C 22.9633,44.9739 22.13,46.9739 20.5,48.5C 20.2539,42.4406 20.5872,36.4406 21.5,30.5C 30.4604,27.1784 39.4604,23.8451 48.5,20.5C 51.04,30.118 49.3733,38.7847 43.5,46.5 Z"/></g>
<g><path style="opacity:0.997" fill="#292828" d="M 94.5,11.5 C 97.8333,11.5 101.167,11.5 104.5,11.5C 104.5,11.8333 104.5,12.1667 104.5,12.5C 96.1814,13.1221 87.848,13.6221 79.5,14C 95.8299,14.4999 112.163,14.6666 128.5,14.5C 127.791,15.404 126.791,15.7373 125.5,15.5C 108.319,18.4341 90.9857,20.6007 73.5,22C 75.5873,22.7922 77.4207,23.9588 79,25.5C 79.5,25 80,24.5 80.5,24C 90.9148,21.7913 101.248,22.1246 111.5,25C 109.408,26.1127 107.075,26.2793 104.5,25.5C 105.048,31.1953 105.714,36.8619 106.5,42.5C 106.167,42.5 105.833,42.5 105.5,42.5C 104.167,42.5 102.833,42.5 101.5,42.5C 100.21,43.0577 99.3768,44.0577 99,45.5C 98.1965,51.172 97.3632,56.8387 96.5,62.5C 93.6658,64.4408 92.8325,67.1074 94,70.5C 94.9025,71.7014 96.0692,72.5348 97.5,73C 104.913,73.7964 112.246,73.6297 119.5,72.5C 120.993,71.6879 121.66,70.3545 121.5,68.5C 121.36,66.9704 120.693,65.9704 119.5,65.5C 119.158,64.6618 118.492,64.3284 117.5,64.5C 117,60.8362 118.167,57.8362 121,55.5C 121.667,51.5 122.333,47.5 123,43.5C 123.5,53.828 123.666,64.1613 123.5,74.5C 126.5,74.5 129.5,74.5 132.5,74.5C 132.5,76.8333 132.5,79.1667 132.5,81.5C 133.5,81.5 134.5,81.5 135.5,81.5C 135.5,84.1667 135.5,86.8333 135.5,89.5C 138.167,89.5 140.833,89.5 143.5,89.5C 143.5,92.1667 143.5,94.8333 143.5,97.5C 146.167,97.5 148.833,97.5 151.5,97.5C 151.5,99.5 151.5,101.5 151.5,103.5C 137.833,103.5 124.167,103.5 110.5,103.5C 95.1667,103.5 79.8333,103.5 64.5,103.5C 65.4124,102.262 65.5791,100.928 65,99.5C 62.2628,100.61 59.4294,100.777 56.5,100C 58.3591,98.0186 60.6924,97.0186 63.5,97C 64.6843,95.8545 64.6843,94.6879 63.5,93.5C 63.5569,92.391 63.8902,91.391 64.5,90.5C 67.8617,86.8075 71.1951,83.1408 74.5,79.5C 76.0861,78.5868 77.5861,78.5868 79,79.5C 80.4029,74.6173 81.2362,69.6173 81.5,64.5C 82.5862,64.38 83.2528,63.7133 83.5,62.5C 86.6955,51.2626 87.0288,40.2626 84.5,29.5C 80.3378,28.2237 76.3378,26.557 72.5,24.5C 70.3314,19.9071 66.9981,18.2405 62.5,19.5C 62.7692,17.5714 62.2692,15.9047 61,14.5C 55.3932,15.2599 49.7266,15.9265 44,16.5C 42.0922,16.7151 40.9256,17.7151 40.5,19.5C 39.713,21.1042 38.3797,21.7709 36.5,21.5C 31.4526,22.0069 26.4526,22.8403 21.5,24C 20.4911,26.1718 18.8244,27.3385 16.5,27.5C 15.7321,26.7375 15.2321,25.7375 15,24.5C 14.2634,18.0536 14.43,16.387 15.5,19.5C 23.3504,19.5634 31.0171,18.3967 38.5,16C 32.4853,15.4652 26.4853,14.7985 20.5,14C 45.3151,12.9502 69.9818,12.1168 94.5,11.5 Z"/></g>
<g><path style="opacity:0.968" fill="#352d1c" d="M 72.5,24.5 C 65.1844,22.1729 57.8511,19.8395 50.5,17.5C 47.2844,18.7951 43.9511,19.4618 40.5,19.5C 40.9256,17.7151 42.0922,16.7151 44,16.5C 49.7266,15.9265 55.3932,15.2599 61,14.5C 62.2692,15.9047 62.7692,17.5714 62.5,19.5C 66.9981,18.2405 70.3314,19.9071 72.5,24.5 Z"/></g>
<g><path style="opacity:0.995" fill="#27262a" d="M 76.5,31.5 C 81.889,33.1713 83.5557,36.5046 81.5,41.5C 80.5,41.5 79.5,41.5 78.5,41.5C 78.6068,45.2865 77.1068,48.2865 74,50.5C 73.218,47.7431 73.718,45.2431 75.5,43C 71.6651,40.1632 67.4985,39.3299 63,40.5C 62.3109,39.6433 61.4776,38.9767 60.5,38.5C 59.1667,34.1667 59.1667,29.8333 60.5,25.5C 61.1328,28.4946 62.1328,31.328 63.5,34C 67.7085,33.1843 72.0418,32.351 76.5,31.5 Z"/></g>
<g><path style="opacity:0.992" fill="#221f27" d="M 12.5,103.5 C 11.5,103.5 10.5,103.5 9.5,103.5C 8.66705,86.8477 8.33371,70.181 8.5,53.5C 9.33003,44.0087 9.83003,34.342 10,24.5C 10.3333,24.8333 10.6667,25.1667 11,25.5C 12.3277,51.481 12.8277,77.481 12.5,103.5 Z"/></g>
<g><path style="opacity:0.993" fill="#3e3c19" d="M 75.5,28.5 C 77.7014,29.5664 80.0347,30.233 82.5,30.5C 83.8003,37.3647 83.4669,44.0313 81.5,50.5C 81.5,47.5 81.5,44.5 81.5,41.5C 83.5557,36.5046 81.889,33.1713 76.5,31.5C 75.8902,30.609 75.5569,29.609 75.5,28.5 Z"/></g>
<g><path style="opacity:0.99" fill="#3b3416" d="M 84.5,29.5 C 87.0288,40.2626 86.6955,51.2626 83.5,62.5C 83.2528,63.7133 82.5862,64.38 81.5,64.5C 85.0414,53.0459 86.0414,41.3792 84.5,29.5 Z"/></g>
<g><path style="opacity:0.996" fill="#392f1a" d="M 60.5,58.5 C 60.461,55.911 61.461,53.911 63.5,52.5C 64.0431,52.44 64.3764,52.1067 64.5,51.5C 59.2803,50.3729 54.447,48.3729 50,45.5C 48.4928,46.5549 46.9928,47.5549 45.5,48.5C 48.0212,37.3698 51.6878,36.8698 56.5,47C 60.2876,48.15 63.9543,49.4833 67.5,51C 65.6671,53.9985 63.3338,56.4985 60.5,58.5 Z"/></g>
<g><path style="opacity:0.826" fill="#49311b" d="M 21.5,30.5 C 20.5872,36.4406 20.2539,42.4406 20.5,48.5C 20.5,49.5 20.5,50.5 20.5,51.5C 18.9219,45.3373 18.5885,39.004 19.5,32.5C 19.7472,31.2867 20.4138,30.62 21.5,30.5 Z"/></g>
<g><path style="opacity:0.989" fill="#2a2824" d="M 75.5,28.5 C 75.5569,29.609 75.8902,30.609 76.5,31.5C 72.0418,32.351 67.7085,33.1843 63.5,34C 62.1328,31.328 61.1328,28.4946 60.5,25.5C 59.1667,29.8333 59.1667,34.1667 60.5,38.5C 61.4776,38.9767 62.3109,39.6433 63,40.5C 67.4985,39.3299 71.6651,40.1632 75.5,43C 73.718,45.2431 73.218,47.7431 74,50.5C 77.1068,48.2865 78.6068,45.2865 78.5,41.5C 79.5,41.5 80.5,41.5 81.5,41.5C 81.5,44.5 81.5,47.5 81.5,50.5C 81.8094,54.7047 81.1428,58.7047 79.5,62.5C 78.735,61.3398 77.735,60.3398 76.5,59.5C 75.914,59.7093 75.414,60.0426 75,60.5C 74.6191,63.0411 73.7857,65.3745 72.5,67.5C 73.3958,69.8006 73.5625,72.1339 73,74.5C 71.117,75.6526 70.2837,77.3193 70.5,79.5C 66.981,86.0146 61.6477,90.3479 54.5,92.5C 53.5093,86.021 53.176,79.3543 53.5,72.5C 53.281,71.325 53.6143,70.325 54.5,69.5C 57.0283,71.8738 60.0283,72.8738 63.5,72.5C 63.5,68.5 63.5,64.5 63.5,60.5C 65.1734,57.8334 67.5067,55.8334 70.5,54.5C 71.4742,52.2573 71.8076,49.924 71.5,47.5C 67.5772,46.3174 63.5772,45.3174 59.5,44.5C 58.7174,42.7118 57.3841,41.7118 55.5,41.5C 54.1077,39.7274 52.941,37.7274 52,35.5C 51.7489,30.4993 51.9155,25.4993 52.5,20.5C 60.31,22.7699 67.9767,25.4366 75.5,28.5 Z"/></g>
<g><path style="opacity:0.987" fill="#3f351e" d="M 163.5,42.5 C 166.287,41.5233 169.287,41.19 172.5,41.5C 172.992,43.8185 173.992,45.8185 175.5,47.5C 175.5,48.8333 175.5,50.1667 175.5,51.5C 173.836,45.5147 169.836,42.5147 163.5,42.5 Z"/></g>
<g><path style="opacity:0.995" fill="#5e552a" d="M 246.5,42.5 C 252.085,41.2846 257.751,41.618 263.5,43.5C 265.177,42.8131 266.844,42.1465 268.5,41.5C 270.099,41.2322 271.432,41.5655 272.5,42.5C 270.286,42.2907 268.619,43.124 267.5,45C 268.414,46.4064 269.08,47.9064 269.5,49.5C 267.804,47.871 266.804,48.2043 266.5,50.5C 265.314,47.6603 263.314,45.4936 260.5,44C 255.203,44.4384 249.87,44.4384 244.5,44C 247.5,43.6667 250.5,43.3333 253.5,43C 251.19,42.5034 248.857,42.3367 246.5,42.5 Z"/></g>
<g><path style="opacity:0.98" fill="#2a281e" d="M 43.5,46.5 C 40.3586,47.3213 37.0252,47.8213 33.5,48C 32.6433,48.6891 31.9767,49.5224 31.5,50.5C 34.3366,52.9922 36.3366,55.9922 37.5,59.5C 35.6667,61.6329 33.6667,63.6329 31.5,65.5C 30.7285,63.1378 29.8952,60.8045 29,58.5C 28.3333,57.1667 27.6667,57.1667 27,58.5C 26.1667,60.1667 25.3333,61.8333 24.5,63.5C 26.0553,65.943 26.722,68.6097 26.5,71.5C 22.6611,65.4983 20.6611,58.8316 20.5,51.5C 20.5,50.5 20.5,49.5 20.5,48.5C 22.13,46.9739 22.9633,44.9739 23,42.5C 24.0224,47.2564 25.3557,51.923 27,56.5C 27.3876,53.1508 27.2209,49.8175 26.5,46.5C 32.152,45.3116 37.8186,45.3116 43.5,46.5 Z"/></g>
<g><path style="opacity:0.753" fill="#725c36" d="M 105.5,42.5 C 105.833,42.5 106.167,42.5 106.5,42.5C 107.167,42.5 107.5,42.8333 107.5,43.5C 107.5,49.5 107.5,55.5 107.5,61.5C 106.797,55.2671 106.13,48.9338 105.5,42.5 Z"/></g>
<g><path style="opacity:0.987" fill="#2f2e2d" d="M 125.5,15.5 C 165.17,16.3334 204.837,17.3334 244.5,18.5C 205.499,18.3333 166.499,18.5 127.5,19C 137.674,20.3095 148.008,20.9761 158.5,21C 175.497,21.4999 192.497,21.6666 209.5,21.5C 197.708,23.1601 185.708,23.8268 173.5,23.5C 173.5,26.5 173.5,29.5 173.5,32.5C 174.5,32.5 175.5,32.5 176.5,32.5C 176.5,35.1667 176.5,37.8333 176.5,40.5C 175.041,40.4326 173.708,40.7659 172.5,41.5C 169.287,41.19 166.287,41.5233 163.5,42.5C 156.734,42.6007 152.067,45.6007 149.5,51.5C 148.626,53.69 146.959,54.69 144.5,54.5C 144.167,54.5 143.833,54.5 143.5,54.5C 143.5,53.5 143.5,52.5 143.5,51.5C 140.447,51.9107 137.447,52.5774 134.5,53.5C 133.571,52.3112 133.238,50.9778 133.5,49.5C 136.833,49.5 140.167,49.5 143.5,49.5C 145.28,48.0101 145.946,46.0101 145.5,43.5C 138.841,43.0462 132.174,42.7129 125.5,42.5C 124.506,52.6532 124.172,62.9865 124.5,73.5C 131.841,73.6663 139.174,73.4997 146.5,73C 148.037,71.8904 148.703,70.3904 148.5,68.5C 149.833,68.5 151.167,68.5 152.5,68.5C 153.167,68.8333 153.833,69.1667 154.5,69.5C 154.511,71.0174 155.177,72.1841 156.5,73C 161.851,73.61 167.184,73.4433 172.5,72.5C 174.333,72.4146 175.666,71.7479 176.5,70.5C 176.5,65.8333 176.5,61.1667 176.5,56.5C 176.567,55.0413 176.234,53.7079 175.5,52.5C 175.5,52.1667 175.5,51.8333 175.5,51.5C 175.5,50.1667 175.5,48.8333 175.5,47.5C 175.709,46.0783 176.209,44.745 177,43.5C 177.894,48.3649 179.061,53.0316 180.5,57.5C 180.5,62.1667 180.5,66.8333 180.5,71.5C 182.857,71.6633 185.19,71.4966 187.5,71C 186.829,70.0138 186.829,68.8471 187.5,67.5C 188.49,61.69 188.823,55.69 188.5,49.5C 191.5,49.5 194.5,49.5 197.5,49.5C 197.183,53.7016 197.517,57.7016 198.5,61.5C 198.5,65.1667 198.5,68.8333 198.5,72.5C 202.298,73.4834 206.298,73.8168 210.5,73.5C 210.5,75.8333 210.5,78.1667 210.5,80.5C 212.5,80.5 214.5,80.5 216.5,80.5C 216.5,81.5 216.5,82.5 216.5,83.5C 219.167,83.5 221.833,83.5 224.5,83.5C 224.5,86.1667 224.5,88.8333 224.5,91.5C 227.167,91.5 229.833,91.5 232.5,91.5C 232.5,94.1667 232.5,96.8333 232.5,99.5C 235.167,99.5 237.833,99.5 240.5,99.5C 240.5,100.833 240.5,102.167 240.5,103.5C 210.833,103.5 181.167,103.5 151.5,103.5C 151.5,101.5 151.5,99.5 151.5,97.5C 148.833,97.5 146.167,97.5 143.5,97.5C 143.5,94.8333 143.5,92.1667 143.5,89.5C 140.833,89.5 138.167,89.5 135.5,89.5C 135.5,86.8333 135.5,84.1667 135.5,81.5C 134.5,81.5 133.5,81.5 132.5,81.5C 132.5,79.1667 132.5,76.8333 132.5,74.5C 129.5,74.5 126.5,74.5 123.5,74.5C 123.666,64.1613 123.5,53.828 123,43.5C 122.333,47.5 121.667,51.5 121,55.5C 118.167,57.8362 117,60.8362 117.5,64.5C 114.833,64.5 112.167,64.5 109.5,64.5C 109.888,57.2534 109.221,50.2534 107.5,43.5C 107.5,42.8333 107.167,42.5 106.5,42.5C 105.714,36.8619 105.048,31.1953 104.5,25.5C 107.075,26.2793 109.408,26.1127 111.5,25C 101.248,22.1246 90.9148,21.7913 80.5,24C 80,24.5 79.5,25 79,25.5C 77.4207,23.9588 75.5873,22.7922 73.5,22C 90.9857,20.6007 108.319,18.4341 125.5,15.5 Z M 125.5,42.5 C 132.174,42.7129 138.841,43.0462 145.5,43.5C 145.946,46.0101 145.28,48.0101 143.5,49.5C 139.702,48.5166 135.702,48.1832 131.5,48.5C 131.5,50.5 131.5,52.5 131.5,54.5C 135.5,54.5 139.5,54.5 143.5,54.5C 143.833,54.5 144.167,54.5 144.5,54.5C 144.5,56.1667 144.5,57.8333 144.5,59.5C 140.818,59.3347 137.152,59.5014 133.5,60C 131.808,61.4007 131.141,63.2341 131.5,65.5C 136.119,66.3136 140.786,66.6469 145.5,66.5C 145.5,68.1667 145.5,69.8333 145.5,71.5C 138.833,71.5 132.167,71.5 125.5,71.5C 125.5,61.8333 125.5,52.1667 125.5,42.5 Z"/></g>
<g><path style="opacity:0.998" fill="#433d27" d="M 187.5,42.5 C 188.5,42.5 189.5,42.5 190.5,42.5C 190.5,44.5 190.5,46.5 190.5,48.5C 193.167,48.5 195.833,48.5 198.5,48.5C 198.5,52.8333 198.5,57.1667 198.5,61.5C 197.517,57.7016 197.183,53.7016 197.5,49.5C 194.5,49.5 191.5,49.5 188.5,49.5C 188.823,55.69 188.49,61.69 187.5,67.5C 187.5,59.1667 187.5,50.8333 187.5,42.5 Z"/></g>
<g><path style="opacity:0.995" fill="#443c25" d="M 242.5,42.5 C 242.194,52.2496 242.527,61.9162 243.5,71.5C 241.516,71.6168 239.85,70.9501 238.5,69.5C 237.378,70.6302 236.044,71.2969 234.5,71.5C 240.311,65.2002 239.644,59.7002 232.5,55C 229.246,54.7497 226.246,53.7497 223.5,52C 222.663,50.9887 222.33,49.8221 222.5,48.5C 227.88,48.4768 232.88,49.4768 237.5,51.5C 237.606,48.3855 236.606,45.7188 234.5,43.5C 237.482,45.0775 240.149,44.7442 242.5,42.5 Z"/></g>
<g><path style="opacity:0.992" fill="#3e3524" d="M 101.5,42.5 C 101.5,52.1667 101.5,61.8333 101.5,71.5C 107.69,71.1771 113.69,71.5104 119.5,72.5C 112.246,73.6297 104.913,73.7964 97.5,73C 96.0692,72.5348 94.9025,71.7014 94,70.5C 92.8325,67.1074 93.6658,64.4408 96.5,62.5C 97.3632,56.8387 98.1965,51.172 99,45.5C 99.3768,44.0577 100.21,43.0577 101.5,42.5 Z"/></g>
<g><path style="opacity:0.995" fill="#282329" d="M 63.5,52.5 C 61.3208,51.9408 59.1542,51.2741 57,50.5C 56.1268,50.7355 55.2935,51.0688 54.5,51.5C 54.5,53.8333 54.5,56.1667 54.5,58.5C 51.8796,57.4776 49.2129,57.4776 46.5,58.5C 44.8857,58.1971 43.5523,57.5305 42.5,56.5C 41.3054,56.1344 40.6387,55.301 40.5,54C 41.2958,51.7145 42.6291,49.8812 44.5,48.5C 44.8333,48.5 45.1667,48.5 45.5,48.5C 46.9928,47.5549 48.4928,46.5549 50,45.5C 54.447,48.3729 59.2803,50.3729 64.5,51.5C 64.3764,52.1067 64.0431,52.44 63.5,52.5 Z"/></g>
<g><path style="opacity:0.991" fill="#3b3313" d="M 55.5,41.5 C 57.3841,41.7118 58.7174,42.7118 59.5,44.5C 63.5772,45.3174 67.5772,46.3174 71.5,47.5C 71.8076,49.924 71.4742,52.2573 70.5,54.5C 67.5067,55.8334 65.1734,57.8334 63.5,60.5C 63.3505,59.448 63.5172,58.448 64,57.5C 66.3504,55.3171 68.517,52.9837 70.5,50.5C 66.7939,48.3188 62.7939,46.8188 58.5,46C 57.6138,44.3853 56.6138,42.8853 55.5,41.5 Z"/></g>
<g><path style="opacity:1" fill="#3d3826" d="M 250.5,48.5 C 256.927,46.7618 259.594,49.0951 258.5,55.5C 257.5,55.5 256.5,55.5 255.5,55.5C 253.833,55.5 252.167,55.5 250.5,55.5C 250.5,53.1667 250.5,50.8333 250.5,48.5 Z"/></g>
<g><path style="opacity:0.956" fill="#37382d" d="M 269.5,49.5 C 271.694,51.8997 273.361,54.5664 274.5,57.5C 274.833,59.5 275.167,61.5 275.5,63.5C 274.151,65.5512 273.318,67.5512 273,69.5C 271.229,68.6959 269.729,67.5292 268.5,66C 269.444,63.2809 269.777,60.4475 269.5,57.5C 268.167,57.5 266.833,57.5 265.5,57.5C 265.5,57.1667 265.5,56.8333 265.5,56.5C 266.15,54.5648 266.483,52.5648 266.5,50.5C 266.804,48.2043 267.804,47.871 269.5,49.5 Z"/></g>
<g><path style="opacity:0.999" fill="#494025" d="M 143.5,49.5 C 140.167,49.5 136.833,49.5 133.5,49.5C 133.238,50.9778 133.571,52.3112 134.5,53.5C 137.447,52.5774 140.447,51.9107 143.5,51.5C 143.5,52.5 143.5,53.5 143.5,54.5C 139.5,54.5 135.5,54.5 131.5,54.5C 131.5,52.5 131.5,50.5 131.5,48.5C 135.702,48.1832 139.702,48.5166 143.5,49.5 Z"/></g>
<g><path style="opacity:0.992" fill="#3f3826" d="M 232.5,42.5 C 227.618,42.193 222.951,43.0264 218.5,45C 217.086,46.9935 216.086,49.1602 215.5,51.5C 213.833,51.5 212.167,51.5 210.5,51.5C 210.276,53.7867 209.609,55.9534 208.5,58C 209.404,62.1114 209.737,66.278 209.5,70.5C 210.833,70.5 212.167,70.5 213.5,70.5C 213.5,71.5 213.5,72.5 213.5,73.5C 212.5,73.5 211.5,73.5 210.5,73.5C 206.298,73.8168 202.298,73.4834 198.5,72.5C 200.833,72.5 203.167,72.5 205.5,72.5C 205.334,64.8261 205.5,57.1594 206,49.5C 208.719,48.5562 211.552,48.2229 214.5,48.5C 214.5,47.5 214.5,46.5 214.5,45.5C 215.267,44.828 215.934,43.9947 216.5,43C 220.571,42.4757 224.571,41.6424 228.5,40.5C 230.355,40.3402 231.688,41.0069 232.5,42.5 Z"/></g>
<g><path style="opacity:1" fill="#7b7036" d="M 250.5,48.5 C 250.5,50.8333 250.5,53.1667 250.5,55.5C 252.167,55.5 253.833,55.5 255.5,55.5C 253.735,56.4614 251.735,56.7947 249.5,56.5C 249.194,53.6146 249.527,50.9479 250.5,48.5 Z"/></g>
<g><path style="opacity:1" fill="#2d3030" d="M 165.5,55.5 C 165.167,55.5 164.833,55.5 164.5,55.5C 162.698,56.3155 161.698,57.8155 161.5,60C 162.799,61.3264 164.132,62.6598 165.5,64C 163.19,64.4966 160.857,64.6633 158.5,64.5C 158.5,64.1667 158.5,63.8333 158.5,63.5C 158.334,59.4862 158.501,55.4862 159,51.5C 161.381,50.565 163.881,50.2317 166.5,50.5C 166.634,52.2915 166.301,53.9582 165.5,55.5 Z"/></g>
<g><path style="opacity:0.988" fill="#282621" d="M 63.5,52.5 C 61.461,53.911 60.461,55.911 60.5,58.5C 60.5,58.8333 60.5,59.1667 60.5,59.5C 59.9271,62.1466 59.2604,64.8133 58.5,67.5C 56.9291,66.6906 55.2624,66.3573 53.5,66.5C 50.8313,65.819 48.1647,66.1523 45.5,67.5C 44.5,67.5 43.5,67.5 42.5,67.5C 42.5,63.8333 42.5,60.1667 42.5,56.5C 43.5523,57.5305 44.8857,58.1971 46.5,58.5C 49.2129,57.4776 51.8796,57.4776 54.5,58.5C 54.5,56.1667 54.5,53.8333 54.5,51.5C 55.2935,51.0688 56.1268,50.7355 57,50.5C 59.1542,51.2741 61.3208,51.9408 63.5,52.5 Z"/></g>
<g><path style="opacity:1" fill="#3d3420" d="M 175.5,52.5 C 176.234,53.7079 176.567,55.0413 176.5,56.5C 172.936,55.5773 169.269,55.244 165.5,55.5C 166.301,53.9582 166.634,52.2915 166.5,50.5C 163.881,50.2317 161.381,50.565 159,51.5C 158.501,55.4862 158.334,59.4862 158.5,63.5C 156.983,61.5379 156.316,59.2046 156.5,56.5C 156.945,49.4325 160.612,47.0992 167.5,49.5C 168.985,53.4702 171.651,54.4702 175.5,52.5 Z"/></g>
<g><path style="opacity:0.998" fill="#4c3e28" d="M 125.5,42.5 C 125.5,52.1667 125.5,61.8333 125.5,71.5C 132.167,71.5 138.833,71.5 145.5,71.5C 145.5,69.8333 145.5,68.1667 145.5,66.5C 140.786,66.6469 136.119,66.3136 131.5,65.5C 131.141,63.2341 131.808,61.4007 133.5,60C 137.152,59.5014 140.818,59.3347 144.5,59.5C 144.5,57.8333 144.5,56.1667 144.5,54.5C 146.959,54.69 148.626,53.69 149.5,51.5C 148.307,57.535 149.307,63.2017 152.5,68.5C 151.167,68.5 149.833,68.5 148.5,68.5C 148.703,70.3904 148.037,71.8904 146.5,73C 139.174,73.4997 131.841,73.6663 124.5,73.5C 124.172,62.9865 124.506,52.6532 125.5,42.5 Z"/></g>
<g><path style="opacity:0.747" fill="#3a2f1b" d="M 107.5,43.5 C 109.221,50.2534 109.888,57.2534 109.5,64.5C 112.167,64.5 114.833,64.5 117.5,64.5C 118.492,64.3284 119.158,64.6618 119.5,65.5C 115.818,65.6653 112.152,65.4986 108.5,65C 107.663,63.9887 107.33,62.8221 107.5,61.5C 107.5,55.5 107.5,49.5 107.5,43.5 Z"/></g>
<g><path style="opacity:1" fill="#392f19" d="M 44.5,48.5 C 42.6291,49.8812 41.2958,51.7145 40.5,54C 40.6387,55.301 41.3054,56.1344 42.5,56.5C 42.5,60.1667 42.5,63.8333 42.5,67.5C 43.5,67.5 44.5,67.5 45.5,67.5C 44.2347,68.4793 42.9014,69.4793 41.5,70.5C 40.6725,66.2044 40.1725,61.8711 40,57.5C 32.3347,51.1058 33.8347,48.1058 44.5,48.5 Z"/></g>
<g><path style="opacity:0.963" fill="#282323" d="M 37.5,59.5 C 38.3382,59.8417 38.6716,60.5084 38.5,61.5C 37.2496,66.7541 36.2496,72.0874 35.5,77.5C 37.6382,77.297 39.3049,76.297 40.5,74.5C 45.3967,75.355 47.3967,78.0216 46.5,82.5C 45.2638,81.7542 43.9305,81.4208 42.5,81.5C 42.7865,84.9304 44.6198,87.2638 48,88.5C 48.4828,89.448 48.6495,90.448 48.5,91.5C 47.1667,91.5 45.8333,91.5 44.5,91.5C 36.1864,86.8424 30.1864,80.1757 26.5,71.5C 26.722,68.6097 26.0553,65.943 24.5,63.5C 25.3333,61.8333 26.1667,60.1667 27,58.5C 27.6667,57.1667 28.3333,57.1667 29,58.5C 29.8952,60.8045 30.7285,63.1378 31.5,65.5C 33.6667,63.6329 35.6667,61.6329 37.5,59.5 Z"/></g>
<g><path style="opacity:0.993" fill="#333333" d="M 215.5,51.5 C 215.84,53.679 216.84,55.5123 218.5,57C 220.953,57.9594 223.286,59.126 225.5,60.5C 226.78,61.9313 228.447,62.5979 230.5,62.5C 230.5,63.5 230.5,64.5 230.5,65.5C 227.833,65.5 225.167,65.5 222.5,65.5C 222.67,64.1779 222.337,63.0113 221.5,62C 219.5,61.3333 217.5,61.3333 215.5,62C 214.944,62.3826 214.611,62.8826 214.5,63.5C 213.55,67.5755 215.217,70.2422 219.5,71.5C 219.833,71.5 220.167,71.5 220.5,71.5C 223.976,74.8688 227.642,75.2022 231.5,72.5C 232.209,71.596 233.209,71.2627 234.5,71.5C 236.044,71.2969 237.378,70.6302 238.5,69.5C 239.85,70.9501 241.516,71.6168 243.5,71.5C 244.738,70.5876 246.072,70.4209 247.5,71C 245.068,72.0875 245.402,72.5875 248.5,72.5C 249.5,72.5 250.5,72.5 251.5,72.5C 251.5,69.5 251.5,66.5 251.5,63.5C 255.273,63.7367 258.94,63.2367 262.5,62C 264.141,60.871 265.141,59.371 265.5,57.5C 266.833,57.5 268.167,57.5 269.5,57.5C 269.777,60.4475 269.444,63.2809 268.5,66C 269.729,67.5292 271.229,68.6959 273,69.5C 273.318,67.5512 274.151,65.5512 275.5,63.5C 275.5,66.8333 275.5,70.1667 275.5,73.5C 278.5,73.5 281.5,73.5 284.5,73.5C 284.5,69.1667 284.5,64.8333 284.5,60.5C 285.873,60.3433 287.207,60.51 288.5,61C 287.398,63.4009 287.231,65.9009 288,68.5C 289.36,63.322 290.36,57.9886 291,52.5C 291.498,54.5444 292.665,55.8777 294.5,56.5C 295.833,56.5 297.167,56.5 298.5,56.5C 298.5,72.1667 298.5,87.8333 298.5,103.5C 279.167,103.5 259.833,103.5 240.5,103.5C 240.5,102.167 240.5,100.833 240.5,99.5C 237.833,99.5 235.167,99.5 232.5,99.5C 232.5,96.8333 232.5,94.1667 232.5,91.5C 229.833,91.5 227.167,91.5 224.5,91.5C 224.5,88.8333 224.5,86.1667 224.5,83.5C 221.833,83.5 219.167,83.5 216.5,83.5C 216.5,82.5 216.5,81.5 216.5,80.5C 214.5,80.5 212.5,80.5 210.5,80.5C 210.5,78.1667 210.5,75.8333 210.5,73.5C 211.5,73.5 212.5,73.5 213.5,73.5C 213.5,72.5 213.5,71.5 213.5,70.5C 212.167,70.5 210.833,70.5 209.5,70.5C 209.737,66.278 209.404,62.1114 208.5,58C 209.609,55.9534 210.276,53.7867 210.5,51.5C 212.167,51.5 213.833,51.5 215.5,51.5 Z"/></g>
<g><path style="opacity:0.964" fill="#453d1f" d="M 265.5,56.5 C 265.5,56.8333 265.5,57.1667 265.5,57.5C 265.141,59.371 264.141,60.871 262.5,62C 258.94,63.2367 255.273,63.7367 251.5,63.5C 251.5,66.5 251.5,69.5 251.5,72.5C 250.5,72.5 249.5,72.5 248.5,72.5C 249.423,68.9359 249.756,65.2693 249.5,61.5C 255.8,62.5595 261.133,60.8928 265.5,56.5 Z"/></g>
<g><path style="opacity:0.992" fill="#2f2d19" d="M 79.5,62.5 C 77.7866,68.9307 74.7866,74.5973 70.5,79.5C 70.2837,77.3193 71.117,75.6526 73,74.5C 73.5625,72.1339 73.3958,69.8006 72.5,67.5C 73.7857,65.3745 74.6191,63.0411 75,60.5C 75.414,60.0426 75.914,59.7093 76.5,59.5C 77.735,60.3398 78.735,61.3398 79.5,62.5 Z"/></g>
<g><path style="opacity:1" fill="#41361d" d="M 164.5,55.5 C 162.511,60.2007 164.178,62.5341 169.5,62.5C 168.209,65.2971 166.042,66.6304 163,66.5C 160.992,66.6932 159.492,66.0265 158.5,64.5C 160.857,64.6633 163.19,64.4966 165.5,64C 164.132,62.6598 162.799,61.3264 161.5,60C 161.698,57.8155 162.698,56.3155 164.5,55.5 Z"/></g>
<g><path style="opacity:0.991" fill="#493b1b" d="M 225.5,60.5 C 227.861,60.6741 230.194,61.0074 232.5,61.5C 232.5,63.1667 232.5,64.8333 232.5,66.5C 228.958,66.8128 225.625,66.4794 222.5,65.5C 225.167,65.5 227.833,65.5 230.5,65.5C 230.5,64.5 230.5,63.5 230.5,62.5C 228.447,62.5979 226.78,61.9313 225.5,60.5 Z"/></g>
<g><path style="opacity:0.949" fill="#423915" d="M 60.5,59.5 C 61.0117,62.6318 61.0117,65.9651 60.5,69.5C 57.7594,69.2927 55.4261,68.2927 53.5,66.5C 55.2624,66.3573 56.9291,66.6906 58.5,67.5C 59.2604,64.8133 59.9271,62.1466 60.5,59.5 Z"/></g>
<g><path style="opacity:0.983" fill="#463d19" d="M 214.5,63.5 C 215.794,66.3542 217.461,69.0208 219.5,71.5C 215.217,70.2422 213.55,67.5755 214.5,63.5 Z"/></g>
<g><path style="opacity:0.968" fill="#2d291d" d="M 38.5,61.5 C 39.1239,61.9169 39.4573,62.5836 39.5,63.5C 38.6716,66.4788 38.0049,69.4788 37.5,72.5C 41.6536,72.0884 45.6536,71.0884 49.5,69.5C 49.8312,77.8599 49.4979,86.1932 48.5,94.5C 47.0986,93.4793 45.7653,92.4793 44.5,91.5C 45.8333,91.5 47.1667,91.5 48.5,91.5C 48.6495,90.448 48.4828,89.448 48,88.5C 44.6198,87.2638 42.7865,84.9304 42.5,81.5C 43.9305,81.4208 45.2638,81.7542 46.5,82.5C 47.3967,78.0216 45.3967,75.355 40.5,74.5C 39.3049,76.297 37.6382,77.297 35.5,77.5C 36.2496,72.0874 37.2496,66.7541 38.5,61.5 Z"/></g>
<g><path style="opacity:0.987" fill="#232222" d="M 22.5,69.5 C 24.7454,74.9974 27.7454,79.9974 31.5,84.5C 34.3436,90.3291 39.0103,93.9957 45.5,95.5C 47.2838,95.8925 48.9505,96.5592 50.5,97.5C 51.6009,98.5983 52.9343,98.765 54.5,98C 57.2432,95.9617 60.2432,94.4617 63.5,93.5C 64.6843,94.6879 64.6843,95.8545 63.5,97C 60.6924,97.0186 58.3591,98.0186 56.5,100C 59.4294,100.777 62.2628,100.61 65,99.5C 65.5791,100.928 65.4124,102.262 64.5,103.5C 48.1667,103.5 31.8333,103.5 15.5,103.5C 15.6584,99.7879 15.6584,96.2879 15.5,93C 16.0244,90.0703 17.3578,87.5703 19.5,85.5C 18.6798,83.8888 17.3464,83.2222 15.5,83.5C 16.0701,77.9358 18.4035,73.2691 22.5,69.5 Z"/></g>
<g><path style="opacity:0.982" fill="#36321e" d="M 81.5,64.5 C 81.2362,69.6173 80.4029,74.6173 79,79.5C 77.5861,78.5868 76.0861,78.5868 74.5,79.5C 77.1466,74.5456 79.48,69.5456 81.5,64.5 Z"/></g>
<g><path style="opacity:0.988" fill="#483d21" d="M 154.5,69.5 C 160.036,72.6745 165.37,72.6745 170.5,69.5C 172.238,71.7139 174.238,72.0473 176.5,70.5C 175.666,71.7479 174.333,72.4146 172.5,72.5C 167.184,73.4433 161.851,73.61 156.5,73C 155.177,72.1841 154.511,71.0174 154.5,69.5 Z"/></g>
<g><path style="opacity:0.966" fill="#4e4124" d="M 220.5,71.5 C 224.198,71.5524 227.865,71.8857 231.5,72.5C 227.642,75.2022 223.976,74.8688 220.5,71.5 Z"/></g>
<g><path style="opacity:0.753" fill="#453f19" d="M 274.5,57.5 C 275.222,57.9175 275.722,58.5842 276,59.5C 276.2,63.7533 276.7,67.92 277.5,72C 279.441,72.7429 281.274,72.5762 283,71.5C 283.177,67.6437 283.677,63.977 284.5,60.5C 284.5,64.8333 284.5,69.1667 284.5,73.5C 281.5,73.5 278.5,73.5 275.5,73.5C 275.5,70.1667 275.5,66.8333 275.5,63.5C 275.167,61.5 274.833,59.5 274.5,57.5 Z"/></g>
<g><path style="opacity:0.75" fill="#342a0b" d="M 53.5,72.5 C 53.176,79.3543 53.5093,86.021 54.5,92.5C 54.2172,93.2891 53.7172,93.9558 53,94.5C 52.1782,86.9882 52.3448,79.6549 53.5,72.5 Z"/></g>
<g><path style="opacity:0.975" fill="#382a0f" d="M 31.5,84.5 C 36.1909,88.1973 40.8576,91.864 45.5,95.5C 39.0103,93.9957 34.3436,90.3291 31.5,84.5 Z"/></g>
<g><path style="opacity:0.953" fill="#373012" d="M 64.5,90.5 C 63.8902,91.391 63.5569,92.391 63.5,93.5C 60.2432,94.4617 57.2432,95.9617 54.5,98C 52.9343,98.765 51.6009,98.5983 50.5,97.5C 55.1667,95.1667 59.8333,92.8333 64.5,90.5 Z"/></g>
<g><path style="opacity:0.751" fill="#382d16" d="M 203.5,10.5 C 203.5,10.8333 203.5,11.1667 203.5,11.5C 170.5,11.5 137.5,11.5 104.5,11.5C 101.167,11.5 97.8333,11.5 94.5,11.5C 66.1557,11.2764 37.8224,11.6097 9.5,12.5C 8.68804,26.1505 8.3547,39.8171 8.5,53.5C 8.33371,70.181 8.66705,86.8477 9.5,103.5C 10.5,103.5 11.5,103.5 12.5,103.5C 13.5,103.5 14.5,103.5 15.5,103.5C 31.8333,103.5 48.1667,103.5 64.5,103.5C 79.8333,103.5 95.1667,103.5 110.5,103.5C 110.5,103.833 110.5,104.167 110.5,104.5C 76.1582,105.76 41.8249,105.76 7.5,104.5C 7.5,73.1667 7.5,41.8333 7.5,10.5C 12.8333,10.5 18.1667,10.5 23.5,10.5C 83.3601,10.2343 143.36,10.2343 203.5,10.5 Z"/></g>
<g><path style="opacity:0.752" fill="#383319" d="M 203.5,11.5 C 203.5,11.1667 203.5,10.8333 203.5,10.5C 236.168,10.3334 268.835,10.5 301.5,11C 301.515,41.9587 301.515,73.1254 301.5,104.5C 237.833,104.5 174.167,104.5 110.5,104.5C 110.5,104.167 110.5,103.833 110.5,103.5C 124.167,103.5 137.833,103.5 151.5,103.5C 181.167,103.5 210.833,103.5 240.5,103.5C 259.833,103.5 279.167,103.5 298.5,103.5C 300.492,75.1861 301.159,46.5195 300.5,17.5C 300.5,15.8333 300.5,14.1667 300.5,12.5C 298.167,12.5 295.833,12.5 293.5,12.5C 288.5,12.5 283.5,12.5 278.5,12.5C 253.672,11.5023 228.672,11.169 203.5,11.5 Z"/></g>
<g><path style="opacity:0.876" fill="#31302c" d="M 310.5,104.5 C 310.5,107.833 310.5,111.167 310.5,114.5C 265.5,114.5 220.5,114.5 175.5,114.5C 161.047,112.554 146.38,111.388 131.5,111C 97.835,110.5 64.1683,110.333 30.5,110.5C 23.8333,110.5 17.1667,110.5 10.5,110.5C 106.516,109.171 202.683,109.171 299,110.5C 302.532,110.288 305.698,109.288 308.5,107.5C 309.167,106.5 309.833,105.5 310.5,104.5 Z"/></g>
<g><path style="opacity:0.699" fill="#dfd26a" d="M 265.5,105.5 C 281.908,105.43 282.241,106.096 266.5,107.5C 263.833,107.333 261.167,107.167 258.5,107C 261.036,106.814 263.369,106.314 265.5,105.5 Z"/></g>
<g><path style="opacity:1" fill="#43381c" d="M 8.5,6.5 C 9.56764,5.56552 10.901,5.23219 12.5,5.5C 56.1667,5.5 99.8333,5.5 143.5,5.5C 159.833,5.5 176.167,5.5 192.5,5.5C 229.833,5.5 267.167,5.5 304.5,5.5C 305.496,5.41423 306.329,5.74756 307,6.5C 307.257,40.1752 307.757,73.8418 308.5,107.5C 305.698,109.288 302.532,110.288 299,110.5C 202.683,109.171 106.516,109.171 10.5,110.5C 9.83333,110.5 9.16667,110.5 8.5,110.5C 6.09117,111.798 4.4245,111.131 3.5,108.5C 104.5,108.5 205.5,108.5 306.5,108.5C 306.217,74.4994 305.884,40.4994 305.5,6.5C 206.5,6.5 107.5,6.5 8.5,6.5 Z"/></g>
<g><path style="opacity:0.851" fill="#1e2027" d="M 8.5,110.5 C 9.16667,110.5 9.83333,110.5 10.5,110.5C 17.1667,110.5 23.8333,110.5 30.5,110.5C 35.9753,111.489 41.642,111.822 47.5,111.5C 47.5,112.5 47.5,113.5 47.5,114.5C 34.5,114.5 21.5,114.5 8.5,114.5C 8.5,113.167 8.5,111.833 8.5,110.5 Z"/></g>
<g><path style="opacity:0.849" fill="#242624" d="M 30.5,110.5 C 64.1683,110.333 97.835,110.5 131.5,111C 146.38,111.388 161.047,112.554 175.5,114.5C 132.833,114.5 90.1667,114.5 47.5,114.5C 47.5,113.5 47.5,112.5 47.5,111.5C 41.642,111.822 35.9753,111.489 30.5,110.5 Z"/></g>
</svg>
